<?xml version="1.0" standalone="no"?>
<!DOCTYPE svg PUBLIC "-//W3C//DTD SVG 20010904//EN"
 "http://www.w3.org/TR/2001/REC-SVG-20010904/DTD/svg10.dtd">
<svg version="1.0" xmlns="http://www.w3.org/2000/svg"
 width="600.000000pt" height="400.000000pt" viewBox="0 0 600.000000 400.000000"
 preserveAspectRatio="xMidYMid meet">
<g transform="translate(0.000000,400.000000) scale(0.050000,-0.050000)"
fill="#000000" stroke="none">
<path d="M5430 5431 c-44 -27 -111 -66 -150 -87 -38 -21 -133 -77 -210 -124
-77 -48 -239 -145 -360 -215 -121 -71 -245 -152 -275 -180 l-55 -52 1 -652 c0
-585 4 -655 35 -692 29 -34 333 -229 358 -229 5 0 46 -25 92 -56 46 -31 107
-67 134 -80 28 -13 136 -78 240 -144 210 -132 304 -179 344 -172 64 11 132 42
206 92 44 30 112 73 150 95 39 22 133 78 210 125 76 47 175 106 220 130 152
83 320 191 360 231 38 38 40 71 46 688 l6 647 -46 51 c-40 44 -361 253 -389
253 -6 0 -35 17 -64 38 -29 20 -84 55 -123 77 -215 123 -320 185 -409 242
-121 77 -210 81 -321 14z m18 -613 c29 -33 52 -67 53 -75 0 -7 8 -52 17 -99
65 -333 -251 -486 -338 -165 -69 256 128 506 268 339z m485 -13 c90 -135 84
-351 -14 -449 -146 -146 -323 23 -285 274 34 231 197 326 299 175z m-875 -352
c147 -132 164 -429 28 -491 -153 -70 -335 220 -267 426 44 132 135 157 239 65z
m1224 30 c66 -54 79 -263 22 -375 -117 -229 -325 -204 -324 39 1 235 180 434
302 336z m-548 -282 c40 -25 87 -84 124 -157 33 -65 85 -134 116 -153 325
-207 197 -549 -154 -411 -136 54 -344 54 -485 0 -322 -122 -474 184 -189 380
44 30 101 102 145 181 108 198 279 260 443 160z"/>
</g>
</svg>
